# xmcd
#
# Track frame offsets:
#	150
#	15140
#	31776
#	49631
#	64011
#	79060
#	96646
#	113111
#	130648
#	144125
#	158639
#	174081
#	190660
#	202829
#	221424
#	238690
#	256373
#	271660
#	288021
#	302000
#	319368
#	333796
#
# Disc length: 4663 seconds
#
# Revision: 0
# Processed by: cddbd v1.5.2PL0 Copyright (c) Steve Scherf et al.
# Submitted via: EasyCDDAExtractor 11.5.0.1
#
DISCID=14123516
DTITLE=Various Artist - NCT 114
DYEAR=2008
DGENRE=Country
TTITLE0=Dierks Bentley - Feel That Fire
TTITLE1=Jessica Simpson - Remember That
TTITLE2=Brad Paisley ft. Keith Urban - Start A Band
TTITLE3=Sara Evans - Low
TTITLE4=Gary Allan - She's So California
TTITLE5=Rascal Flatts - Here
TTITLE6=Brooks and Dunn - Cowgirls Don't Cry
TTITLE7=Taylor Swift - Love Story
TTITLE8=Darryl Worley - Tequila On Ice
TTITLE9=Randy Travis - Dig Two Graves
TTITLE10=Julianne Hough - My Hallelujah Song
TTITLE11=Eli Young Band - Always The Love Songs
TTITLE12=Aaron Watson - Love Makin' Song
TTITLE13=Rio Grand - God's Got A Bigger Plan
TTITLE14=Mark Chesnett - (Come On In) The Whiskey's Fine
TTITLE15=Steve Azar - You're My Life
TTITLE16=Charlie Allen - Why Ask Why
TTITLE17=Chad Hudson - Somebody Find Me A Preacher
TTITLE18=Cross Canadian Ragweed - Record Exec
TTITLE19=Cowboy Crush - Tougher Than A Man
TTITLE20=Matt Stillwell - Shine
TTITLE21=Becky Schlegel - Jenny
EXTD=
EXTT0=
EXTT1=
EXTT2=
EXTT3=
EXTT4=
EXTT5=
EXTT6=
EXTT7=
EXTT8=
EXTT9=
EXTT10=
EXTT11=
EXTT12=
EXTT13=
EXTT14=
EXTT15=
EXTT16=
EXTT17=
EXTT18=
EXTT19=
EXTT20=
EXTT21=
PLAYORDER=
